<svg xmlns="http://www.w3.org/2000/svg" viewBox="0 0 96 96" role="img" aria-labelledby="title desc">
  <title id="title">ClassBridge logo</title>
  <desc id="desc">A minimal bridge, book, and chat symbol for ClassBridge.</desc>
  <rect width="96" height="96" rx="24" fill="#191b1f"/>
  <path d="M22 57c8.7-12 17.3-18 26-18s17.3 6 26 18" fill="none" stroke="#ffffff" stroke-width="7" stroke-linecap="round"/>
  <path d="M23 35c9.5 0 17.2 2.6 23 7.7V67c-5.8-5.2-13.5-7.7-23-7.7V35Z" fill="#f7f7f4"/>
  <path d="M73 35c-9.5 0-17.2 2.6-23 7.7V67c5.8-5.2 13.5-7.7 23-7.7V35Z" fill="#f7f7f4"/>
  <path d="M37 29h22c7.2 0 13 5.8 13 13s-5.8 13-13 13h-5.8l-9.2 8v-8h-7c-7.2 0-13-5.8-13-13s5.8-13 13-13Z" fill="#286b5d"/>
  <path d="M37 40h22M37 47h14" fill="none" stroke="#ffffff" stroke-width="4" stroke-linecap="round"/>
</svg>
